<svg width="140" height="50" viewBox="0 0 140 50" fill="none" xmlns="http://www.w3.org/2000/svg">
<path d="M68.7539 28.2305C68.7539 30.5625 68.8359 32.0098 69 32.5723C69.1758 33.123 69.6094 33.3691 70.3008 33.3105C70.4648 33.6973 70.5469 34.0664 70.5469 34.418C70.5469 34.9922 70.1191 35.4316 69.2637 35.7363C68.4082 36.0293 67.623 36.1758 66.9082 36.1758C66.3574 36.1758 65.9707 36.0938 65.748 35.9297C65.5254 35.7539 65.1797 35.3262 64.7109 34.6465C63.6211 35.1973 62.5723 35.6191 61.5645 35.9121C60.5684 36.2051 59.502 36.3516 58.3652 36.3516C56.8652 36.3516 55.6875 35.959 54.832 35.1738C53.9766 34.377 53.5488 32.7656 53.5488 30.3398C53.5488 26.7188 53.5254 24.4863 53.4785 23.6426C53.4434 22.7871 53.3555 22.166 53.2148 21.7793C53.0742 21.3809 52.8867 21.1348 52.6523 21.041C52.418 20.9355 52.0781 20.8828 51.6328 20.8828C51.4219 20.5547 51.3164 20.1738 51.3164 19.7402C51.3164 19.2012 51.6445 18.8262 52.3008 18.6152C52.957 18.4043 53.9941 18.2988 55.4121 18.2988C56.4316 18.2988 57.1523 18.3633 57.5742 18.4922C57.9961 18.6094 58.2539 18.791 58.3477 19.0371C58.4531 19.2832 58.5059 20.1094 58.5059 21.5156V27.7734C58.5059 30.0586 58.7227 31.5527 59.1562 32.2559C59.5898 32.959 60.2051 33.3105 61.002 33.3105C61.5996 33.3105 62.1504 33.1816 62.6543 32.9238C63.1582 32.6543 63.4746 32.3086 63.6035 31.8867C63.7324 31.4531 63.7969 30.6797 63.7969 29.5664C63.7969 26.4609 63.791 24.4863 63.7793 23.6426C63.7676 22.7988 63.7031 22.1777 63.5859 21.7793C63.4688 21.3809 63.3164 21.1348 63.1289 21.041C62.9531 20.9355 62.6426 20.8828 62.1973 20.8828C61.9863 20.5547 61.8809 20.1738 61.8809 19.7402C61.8809 19.2012 62.209 18.8262 62.8652 18.6152C63.5332 18.4043 64.4648 18.2988 65.6602 18.2988C66.6797 18.2988 67.4004 18.3633 67.8223 18.4922C68.2441 18.6094 68.502 18.8203 68.5957 19.125C68.7012 19.418 68.7539 20.2734 68.7539 21.6914V28.2305Z" fill="#F8F8FF"/>
<path d="M73.7637 18.6152H74.9941L76.7344 13.3242C77.332 13.5 77.8828 13.7285 78.3867 14.0098C78.9023 14.291 79.2891 14.6133 79.5469 14.9766C79.8164 15.3398 79.9512 16.2363 79.9512 17.666V18.6152H85.8926C86.0918 19.084 86.1914 19.582 86.1914 20.1094C86.1914 20.5547 86.1094 20.8535 85.9453 21.0059C85.7812 21.1582 85.4648 21.2344 84.9961 21.2344H79.9512V28.1777C79.9512 30.1934 80.1211 31.5645 80.4609 32.291C80.8008 33.0176 81.3633 33.3984 82.1484 33.4336C82.9453 33.457 83.9121 33.1758 85.0488 32.5898C85.3887 33.0469 85.5586 33.5684 85.5586 34.1543C85.5586 34.9512 85.1367 35.4902 84.293 35.7715C83.4609 36.041 82.1602 36.1758 80.3906 36.1758C78.457 36.1758 77.0742 35.7891 76.2422 35.0156C75.4219 34.2422 75.0117 32.7422 75.0117 30.5156V27.457C75.0117 25.5234 74.9531 23.4492 74.8359 21.2344H73.043C72.832 20.7305 72.7266 20.2207 72.7266 19.7051C72.7266 19.3066 72.8027 19.0254 72.9551 18.8613C73.1191 18.6973 73.3887 18.6152 73.7637 18.6152Z" fill="#F8F8FF"/>
<path d="M105.527 25.2598C105.527 29.4199 105.557 32.1973 105.615 33.5918H107.531C107.742 33.9785 107.848 34.4121 107.848 34.8926C107.848 35.3027 107.76 35.5898 107.584 35.7539C107.42 35.918 107.092 36 106.6 36H99.3047C99.1055 35.5078 99.0059 35.0449 99.0059 34.6113C99.0059 34.248 99.0879 33.9902 99.252 33.8379C99.416 33.6738 99.6797 33.5918 100.043 33.5918H100.482C100.541 31.541 100.57 29.5137 100.57 27.5098C100.57 25.1191 100.348 23.5195 99.9023 22.7109C99.4688 21.8906 98.7598 21.4805 97.7754 21.4805C97.1777 21.4805 96.6387 21.7266 96.1582 22.2188C95.6777 22.6992 95.4375 23.7129 95.4375 25.2598V28.793C95.4375 30.2695 95.4668 31.8691 95.5254 33.5918H96.791C96.9902 33.9785 97.0898 34.4121 97.0898 34.8926C97.0898 35.3027 97.002 35.5898 96.8262 35.7539C96.6621 35.918 96.334 36 95.8418 36H88.3887C88.1777 35.5078 88.0723 35.0449 88.0723 34.6113C88.0723 34.248 88.1543 33.9902 88.3184 33.8379C88.4824 33.6738 88.7461 33.5918 89.1094 33.5918H90.3926C90.4512 31.6582 90.4805 29.6602 90.4805 27.5977C90.4805 24.3164 90.3223 22.377 90.0059 21.7793C89.7012 21.1816 89.1621 20.8828 88.3887 20.8828C88.1777 20.4141 88.0723 19.9453 88.0723 19.4766C88.0723 19.0547 88.2246 18.7793 88.5293 18.6504C88.8457 18.5215 90.7852 18.4043 94.3477 18.2988C94.4062 18.791 94.4062 19.4648 94.3477 20.3203C95.625 19.5234 96.8203 18.9609 97.9336 18.6328C99.0586 18.293 100.037 18.123 100.869 18.123C102.029 18.123 102.92 18.3047 103.541 18.668C104.162 19.0195 104.602 19.4883 104.859 20.0742C105.914 19.4297 106.986 18.9434 108.076 18.6152C109.166 18.2871 110.109 18.123 110.906 18.123C112.441 18.123 113.607 18.4863 114.404 19.2129C115.213 19.9395 115.617 21.4043 115.617 23.6074C115.617 29.373 115.723 32.4844 115.934 32.9414C116.145 33.3867 116.602 33.6035 117.305 33.5918C117.48 34.0137 117.568 34.4531 117.568 34.9102C117.568 35.332 117.428 35.6191 117.146 35.7715C116.877 35.9238 116.355 36 115.582 36C113.684 36 112.482 35.9707 111.979 35.9121C111.475 35.8535 111.129 35.666 110.941 35.3496C110.754 35.0215 110.66 34.4766 110.66 33.7148V27.5098C110.66 25.1191 110.438 23.5195 109.992 22.7109C109.559 21.8906 108.85 21.4805 107.865 21.4805C107.268 21.4805 106.729 21.7266 106.248 22.2188C105.768 22.6992 105.527 23.7129 105.527 25.2598Z" fill="#F8F8FF"/>
<g clip-path="url(#clip0)">
<path d="M34.207 24.3668C34.0213 22.6824 33.1055 21.167 31.7055 20.2276H31.6924L14.9308 8.97383C12.6196 7.42436 9.54091 7.75242 7.60259 9.75471C6.57286 10.827 5.99805 12.2611 6 13.753V36.2635C6.02613 38.398 7.21232 40.346 9.08913 41.3367C10.9659 42.3273 13.2309 42.2009 14.9876 41.0074L31.6996 29.8432C33.4817 28.63 34.4477 26.5201 34.207 24.3668Z" fill="url(#paint0_linear)"/>
<path d="M11.7329 42C9.20603 42.0032 6.9759 40.3346 6.24511 37.8939C5.51432 35.4533 6.45571 32.8178 8.56163 31.4088L25.3526 20.1667C27.057 19.0256 29.2353 18.8887 31.0668 19.8075C32.8984 20.7263 34.1051 22.5613 34.2323 24.6212C34.3594 26.6811 33.3878 28.653 31.6834 29.7941L14.8925 41.0362C13.9565 41.6648 12.8572 42 11.7329 42Z" fill="url(#paint1_linear)"/>
<path opacity="0.25" d="M28.5198 30.7966C27.3908 30.7973 26.287 30.4601 25.3489 29.8278L8.55049 18.5578C5.9188 16.7921 5.20798 13.2142 6.96285 10.5662C8.71772 7.91829 12.2737 7.2031 14.9054 8.96879L31.7039 20.2388C33.7978 21.651 34.7282 24.2743 33.9959 26.7013C33.2635 29.1282 31.0406 30.7883 28.5198 30.7907V30.7966Z" fill="url(#paint2_linear)"/>
<path d="M11.7171 42C8.55963 42 6 39.4204 6 36.2383V13.7617C6 10.5796 8.55963 8 11.7171 8C14.8745 8 17.4342 10.5796 17.4342 13.7617V36.2383C17.4342 39.4204 14.8745 42 11.7171 42Z" fill="url(#paint3_linear)"/>
</g>
<defs>
<linearGradient id="paint0_linear" x1="5.99563" y1="24.9994" x2="34.2434" y2="24.9994" gradientUnits="userSpaceOnUse">
<stop stop-color="#4C6CD8"/>
<stop offset="1" stop-color="#6F40F1"/>
</linearGradient>
<linearGradient id="paint1_linear" x1="33.0594" y1="24.6033" x2="10.2159" y2="40.8598" gradientUnits="userSpaceOnUse">
<stop stop-color="#5094F9"/>
<stop offset="1" stop-color="#5094F9" stop-opacity="0"/>
</linearGradient>
<linearGradient id="paint2_linear" x1="33.0818" y1="25.3875" x2="10.2007" y2="9.15009" gradientUnits="userSpaceOnUse">
<stop stop-color="#7195CC" stop-opacity="0"/>
<stop offset="0.018" stop-color="#6989C4" stop-opacity="0.094"/>
<stop offset="0.081" stop-color="#5167AE" stop-opacity="0.371"/>
<stop offset="0.147" stop-color="#3D4A9C" stop-opacity="0.601"/>
<stop offset="0.218" stop-color="#2E348E" stop-opacity="0.778"/>
<stop offset="0.296" stop-color="#232484" stop-opacity="0.903"/>
<stop offset="0.385" stop-color="#1D1B7E" stop-opacity="0.977"/>
<stop offset="0.512" stop-color="#1B187C"/>
<stop offset="0.595" stop-color="#1D1C80" stop-opacity="0.965"/>
<stop offset="0.684" stop-color="#22298D" stop-opacity="0.862"/>
<stop offset="0.775" stop-color="#2B3EA3" stop-opacity="0.69"/>
<stop offset="0.868" stop-color="#385CC1" stop-opacity="0.449"/>
<stop offset="0.962" stop-color="#4882E7" stop-opacity="0.142"/>
<stop offset="1" stop-color="#5094F9" stop-opacity="0"/>
</linearGradient>
<linearGradient id="paint3_linear" x1="11.7171" y1="8.00147" x2="11.7171" y2="42" gradientUnits="userSpaceOnUse">
<stop stop-color="#00F9FF"/>
<stop offset="0.843" stop-color="#00F9FF" stop-opacity="0"/>
</linearGradient>
<clipPath id="clip0">
<rect width="28.2697" height="34" fill="white" transform="translate(6 8)"/>
</clipPath>
</defs>
</svg>
